<?xml version="1.0" standalone="no"?>
<!DOCTYPE svg PUBLIC "-//W3C//DTD SVG 20010904//EN" "http://www.w3.org/TR/2001/REC-SVG-20010904/DTD/svg10.dtd">
<svg xmlns="http://www.w3.org/2000/svg" version="1.0" width="960.000000pt" height="960.000000pt" viewBox="0 0 960.000000 960.000000" preserveAspectRatio="xMidYMid meet">
<metadata>
Created by potrace 1.16, written by Peter Selinger 2001-2019
<meta name="Producer" content="Online-Convert"/></metadata>
<g transform="translate(0.000000,960.000000) scale(0.100000,-0.100000)" fill="#000000" stroke="none">
<path d="M0 4800 l0 -4800 4800 0 4800 0 0 4800 0 4800 -4800 0 -4800 0 0 -4800z m6312 4012 c-1 -8 1 -11 6 -8 14 9 105 -142 99 -164 -3 -11 -1 -18 3 -15 5 3 21 -16 37 -42 15 -27 45 -75 66 -108 21 -33 36 -68 33 -77 -2 -11 0 -15 7 -11 7 4 8 0 4 -11 -4 -9 -3 -15 2 -12 12 8 143 -211 145 -240 0 -12 4 -20 8 -18 11 7 30 -35 22 -48 -4 -6 -3 -8 3 -5 7 4 36 -34 69 -91 32 -53 59 -99 59 -102 0 -3 6 -15 13 -28 7 -12 10 -27 7 -32 -4 -6 -2 -9 4 -8 22 6 137 -203 125 -225 -4 -6 -4 -9 1 -5 10 9 28 -16 85 -112 56 -94 72 -129 63 -143 -4 -6 -1 -7 7 -2 10 6 12 4 7 -9 -4 -9 -3 -14 2 -11 9 5 111 -153 111 -173 0 -6 4 -12 9 -14 4 -1 12 -14 16 -27 5 -18 4 -22 -5 -16 -9 5 -11 4 -6 -4 4 -6 12 -8 18 -5 8 5 9 1 5 -10 -4 -9 -3 -15 2 -12 13 9 133 -194 128 -216 -3 -10 -1 -16 3 -13 13 8 153 -232 146 -250 -3 -9 -2 -13 3 -10 12 7 143 -210 145 -240 0 -13 4 -23 9 -22 7 2 66 -90 113 -178 15 -27 31 -52 36 -53 5 -2 3 -11 -4 -20 -9 -11 -9 -14 -1 -9 15 9 37 -28 27 -45 -4 -6 -3 -8 3 -5 17 11 169 -255 157 -275 -4 -6 -2 -8 3 -5 10 6 82 -102 109 -163 6 -14 36 -67 67 -117 50 -82 97 -170 97 -180 0 -3 -5 -1 -12 3 -7 4 -8 3 -4 -5 4 -6 12 -8 18 -5 8 5 9 1 5 -10 -4 -9 -3 -15 2 -12 17 11 156 -237 145 -256 -4 -6 -3 -8 3 -5 9 6 111 -149 116 -177 1 -6 6 -15 10 -21 37 -46 158 -269 153 -281 -3 -8 -2 -13 3 -10 5 3 35 -38 67 -92 69 -114 86 -150 77 -165 -4 -6 -1 -7 7 -2 10 6 12 4 7 -9 -4 -9 -3 -15 2 -12 10 6 131 -187 131 -209 0 -7 5 -17 11 -20 6 -4 8 -13 5 -21 -3 -8 0 -13 7 -11 7 1 11 -6 10 -16 0 -10 2 -16 5 -12 7 7 92 -124 92 -142 0 -7 5 -13 10 -13 6 0 10 -6 10 -13 0 -7 36 -72 80 -145 44 -72 80 -138 80 -145 0 -8 -29 -28 -64 -46 l-63 -31 -584 -2 -584 -3 504 -2 503 -3 -43 -47 c-167 -180 -563 -554 -581 -550 -4 1 -15 -8 -23 -21 -14 -19 -86 -78 -350 -288 -105 -83 -134 -104 -144 -104 -6 0 -11 -5 -11 -11 0 -5 -4 -8 -9 -5 -5 3 -11 0 -14 -7 -6 -17 -216 -160 -233 -160 -7 0 -11 -4 -9 -8 4 -6 -15 -18 -30 -19 -3 0 -14 -8 -24 -17 -33 -31 -50 -43 -57 -43 -3 0 -38 -21 -78 -47 -39 -27 -73 -46 -75 -45 -2 2 -7 0 -10 -6 -3 -5 -18 -15 -32 -23 -15 -8 -62 -34 -105 -59 -44 -25 -82 -44 -86 -42 -5 1 -8 -3 -8 -8 0 -6 -18 -17 -40 -26 -22 -9 -40 -20 -40 -26 0 -5 -4 -7 -9 -3 -5 3 -13 1 -16 -5 -9 -14 -165 -92 -165 -83 0 5 -4 3 -8 -2 -7 -11 -67 -51 -67 -46 0 2 -46 -19 -102 -48 -57 -28 -103 -48 -103 -44 0 5 -4 2 -9 -5 -4 -7 -15 -14 -23 -16 -9 -1 -23 -8 -32 -15 -9 -7 -16 -10 -16 -5 0 5 -4 3 -8 -4 -5 -7 -21 -15 -37 -18 -16 -3 -40 -12 -54 -19 -48 -27 -186 -86 -203 -88 -10 -1 -18 -4 -18 -8 0 -6 -20 -13 -65 -25 -5 -1 -63 -23 -129 -48 -65 -26 -125 -48 -135 -49 -9 -2 -30 -11 -48 -20 -18 -9 -40 -17 -51 -17 -10 0 -22 -3 -26 -7 -4 -5 -12 -9 -17 -9 -5 -1 -10 -2 -11 -4 -4 -2 -24 -7 -62 -15 -16 -3 -39 -11 -50 -17 -12 -7 -29 -13 -40 -15 -10 -2 -57 -15 -105 -29 -141 -42 -181 -52 -181 -47 0 3 -7 0 -15 -7 -8 -7 -15 -10 -15 -7 0 3 -16 -1 -35 -9 -19 -7 -47 -14 -63 -14 -16 0 -32 -3 -36 -7 -3 -4 -14 -8 -24 -9 -9 -1 -100 -20 -202 -42 -102 -22 -201 -42 -220 -45 -19 -3 -49 -8 -66 -12 -27 -6 -33 -3 -58 35 -15 23 -28 50 -29 60 -1 10 -5 16 -11 13 -5 -4 -7 1 -3 11 4 10 3 15 -3 11 -11 -7 -29 25 -23 42 2 6 -5 17 -16 23 -12 6 -21 20 -21 30 0 11 -4 20 -8 20 -5 0 -15 12 -22 28 -8 15 -20 35 -28 44 -8 9 -11 21 -8 26 3 6 -1 13 -10 16 -9 4 -14 13 -10 22 3 8 2 12 -4 9 -6 -3 -10 2 -10 12 0 10 -9 26 -20 36 -11 9 -20 26 -20 37 0 12 -4 19 -9 16 -11 -7 -23 22 -14 36 4 7 1 8 -7 3 -9 -6 -12 -4 -8 7 4 8 2 21 -4 29 -8 11 -8 9 -4 -6 6 -20 6 -20 -9 0 -9 11 -13 25 -11 32 3 7 0 15 -6 19 -7 5 -8 2 -3 -6 6 -9 4 -11 -4 -6 -7 5 -10 15 -7 23 3 8 2 12 -2 9 -8 -5 -27 25 -157 249 -29 50 -101 173 -160 275 -373 640 -454 783 -449 792 3 4 1 8 -5 8 -14 0 -53 78 -46 90 3 5 -3 18 -13 28 -20 20 -14 46 12 64 6 4 8 8 4 8 -6 0 54 112 69 130 2 2 9 -2 14 -10 8 -12 10 -11 8 5 -3 24 11 75 20 75 3 0 14 18 25 40 16 33 24 39 55 42 20 2 -72 7 -204 12 -190 6 -243 11 -257 23 -50 44 -103 43 1611 45 l1616 3 -1360 5 -1360 5 1338 3 c735 1 1337 4 1337 7 0 9 -63 121 -127 227 -40 65 -63 114 -59 123 3 9 2 14 -3 11 -16 -10 -176 268 -165 286 4 6 3 8 -3 5 -14 -9 -125 173 -127 207 0 13 -5 24 -11 23 -5 -1 -9 6 -9 15 1 10 -2 15 -7 13 -11 -7 -32 33 -24 45 4 6 2 9 -3 8 -12 -4 -78 95 -115 172 -14 30 -46 87 -71 125 -56 87 -88 154 -79 168 3 5 2 7 -4 4 -19 -12 -150 213 -137 235 4 7 3 8 -4 4 -14 -8 -36 30 -26 46 4 7 3 8 -4 4 -6 -4 -18 6 -27 23 -8 17 -28 50 -45 74 -16 25 -30 50 -30 56 0 6 -5 11 -12 11 -6 0 -9 3 -5 6 3 4 0 19 -8 34 -8 15 -11 31 -7 35 4 5 1 4 -7 0 -11 -6 -13 -4 -8 9 4 9 3 15 -2 11 -5 -3 -32 32 -60 77 -49 80 -64 117 -39 102 7 -4 8 -3 4 5 -4 6 -11 9 -16 6 -11 -7 -22 24 -13 37 3 7 1 8 -5 4 -11 -6 -34 24 -78 104 -10 19 -22 37 -25 40 -15 12 -30 53 -25 66 3 8 2 12 -4 9 -12 -7 -33 32 -24 47 4 6 3 8 -4 4 -17 -11 -148 217 -135 237 3 6 1 7 -5 3 -11 -7 -16 5 -13 31 1 6 -53 105 -120 220 -67 114 -163 280 -214 368 -51 88 -216 372 -366 630 -150 259 -297 513 -327 565 -158 273 -435 746 -442 753 -4 5 -6 -7 -5 -26 3 -34 32 -97 111 -240 25 -45 42 -87 39 -94 -3 -8 0 -11 6 -8 6 4 9 -1 7 -11 -2 -11 2 -18 9 -17 8 2 10 -4 6 -14 -5 -12 -3 -14 7 -8 10 6 12 4 7 -9 -4 -10 -3 -15 3 -11 5 3 14 -3 19 -13 14 -26 -13 -65 -29 -42 -6 10 -10 11 -10 3 0 -15 56 -130 118 -245 23 -42 42 -84 42 -92 0 -9 5 -16 10 -16 6 0 14 -8 17 -17 4 -10 15 -30 26 -45 11 -15 17 -34 13 -43 -3 -9 -2 -13 4 -10 6 3 10 -1 10 -9 0 -9 6 -16 14 -16 7 0 16 -13 19 -29 3 -16 13 -35 21 -44 8 -8 12 -17 9 -21 -4 -3 -1 -6 5 -6 7 0 12 -9 12 -20 0 -11 -5 -20 -11 -20 -8 0 -8 -4 -1 -12 11 -13 12 -18 12 -43 0 -9 6 -12 15 -9 11 5 15 -1 15 -26 0 -18 4 -29 10 -25 6 3 10 2 10 -3 0 -5 17 -36 39 -68 21 -33 42 -73 46 -91 4 -19 14 -35 26 -38 21 -7 26 -25 7 -26 -7 0 -4 -4 7 -9 11 -5 14 -9 7 -9 -7 -1 -10 -6 -7 -11 4 -6 11 -7 17 -4 7 4 8 2 4 -4 -8 -14 17 -55 27 -45 4 3 7 -3 7 -15 0 -11 8 -26 18 -31 9 -6 13 -11 9 -11 -5 0 1 -13 12 -29 11 -15 18 -31 14 -34 -9 -10 26 -57 42 -57 23 0 18 -18 -10 -36 -22 -15 -38 -43 -16 -30 8 6 25 -48 22 -71 -1 -6 3 -14 9 -18 6 -4 7 1 4 12 -3 10 3 3 15 -14 14 -23 25 -31 37 -26 13 5 15 3 9 -7 -12 -19 -14 -69 -4 -76 5 -3 6 3 3 13 -5 17 -5 17 6 0 6 -9 8 -22 5 -27 -4 -6 -3 -10 2 -9 4 1 14 1 22 0 11 -1 11 -4 0 -18 -9 -10 -9 -14 -2 -10 8 5 18 -4 28 -23 8 -16 20 -30 26 -30 6 0 7 -5 3 -11 -4 -8 -9 -7 -15 2 -5 8 -9 10 -9 4 0 -13 16 -37 24 -36 14 1 35 -12 31 -19 -3 -5 2 -15 10 -23 8 -9 15 -23 15 -31 0 -9 5 -16 11 -16 6 0 8 -9 4 -21 -5 -15 -4 -19 4 -15 16 10 31 -2 24 -20 -5 -13 -8 -13 -15 -2 -8 10 -9 10 -5 -2 2 -8 9 -16 15 -16 7 -1 17 -2 23 -3 8 -1 8 -6 -1 -16 -11 -13 -10 -14 4 -9 12 4 16 0 16 -15 0 -12 5 -21 10 -21 6 0 10 -5 10 -11 0 -5 -4 -7 -10 -4 -6 3 -7 -1 -4 -9 7 -19 -7 -21 -24 -4 -15 15 2 -47 18 -68 7 -7 8 -19 4 -25 -4 -7 -3 -9 3 -6 6 4 19 -9 29 -28 10 -19 21 -35 25 -35 6 0 19 -30 23 -53 0 -4 6 -11 12 -15 6 -4 15 -18 19 -32 4 -13 13 -30 20 -36 17 -17 9 -77 -16 -126 -33 -65 -396 -693 -449 -778 -6 -8 -62 -105 -125 -215 -64 -110 -125 -208 -136 -217 -12 -10 -17 -23 -13 -29 4 -7 3 -9 -3 -6 -6 4 -13 -6 -17 -24 -4 -20 -10 -28 -18 -23 -7 5 -9 2 -5 -9 3 -9 -3 -26 -16 -40 -12 -13 -23 -30 -25 -38 -2 -8 -9 -17 -15 -21 -7 -4 -7 -8 -2 -8 6 0 2 -5 -7 -11 -9 -5 -15 -16 -12 -23 3 -8 -3 -19 -15 -25 -11 -6 -18 -17 -15 -24 2 -7 -3 -21 -12 -32 -8 -11 -12 -14 -8 -6 5 9 3 12 -5 7 -6 -4 -11 -13 -10 -19 3 -20 -13 -47 -24 -40 -5 3 -7 1 -3 -5 6 -11 -47 -111 -66 -123 -5 -3 -9 -10 -9 -15 1 -5 -5 -16 -13 -26 -8 -9 -12 -19 -9 -22 3 -3 -1 -8 -10 -12 -9 -3 -13 -12 -10 -20 3 -8 0 -14 -6 -14 -6 0 -11 -6 -11 -14 0 -8 -5 -18 -12 -22 -7 -5 -8 -3 -3 6 5 9 4 11 -4 6 -6 -4 -11 -13 -10 -19 1 -7 1 -17 0 -23 -1 -15 -59 -74 -71 -74 -6 0 -18 -17 -28 -37 -9 -21 -22 -43 -28 -50 -10 -11 -36 -54 -112 -188 -9 -16 -18 -31 -18 -33 -3 -5 -310 19 -434 34 -276 35 -336 43 -360 49 -14 4 -59 13 -101 20 -41 8 -136 31 -210 51 -74 20 -145 38 -159 41 -14 3 -32 7 -40 9 -8 3 -17 5 -20 5 -3 1 -10 5 -16 10 -7 5 -25 11 -41 13 -28 4 -128 38 -264 90 -37 14 -69 22 -73 19 -3 -4 -6 -2 -6 4 0 11 -43 33 -66 33 -8 0 -63 23 -122 51 -59 28 -113 52 -119 52 -7 0 -13 4 -13 9 0 5 -4 6 -10 3 -5 -3 -10 -2 -10 4 0 6 -12 14 -27 17 -28 7 -124 53 -133 65 -8 10 -90 50 -90 44 0 -3 -12 5 -26 18 -15 14 -25 29 -23 33 2 5 37 64 78 132 71 118 73 123 55 138 -10 9 -13 13 -7 9 9 -4 11 -1 6 11 -4 11 -3 15 5 10 13 -8 31 23 24 43 -3 8 0 11 6 7 13 -8 19 2 26 40 5 27 4 27 -9 11 -7 -11 -11 -26 -8 -35 4 -10 2 -13 -5 -8 -6 4 -35 -37 -75 -106 -82 -145 -665 -1155 -671 -1164 -1 -1 -18 -4 -39 -7 -44 -6 -58 9 -30 32 29 23 48 61 31 62 -7 0 -4 4 7 9 11 5 14 9 7 9 -7 1 -10 6 -7 11 4 6 10 8 14 6 4 -3 28 30 53 72 35 58 44 80 36 90 -9 10 -6 14 10 19 12 3 20 9 17 13 -3 5 6 21 20 36 27 29 33 49 13 39 -7 -4 0 3 15 16 22 17 25 24 15 30 -10 7 -10 9 3 9 17 0 65 78 61 99 -2 7 1 10 7 7 6 -4 13 5 17 19 3 14 11 25 18 25 6 0 4 5 -4 10 -10 7 -11 10 -2 10 15 0 74 89 66 101 -3 5 0 17 6 26 10 16 11 16 5 -2 -4 -13 -3 -17 4 -10 5 6 11 16 13 24 2 8 11 23 21 33 10 10 15 23 12 28 -4 6 -1 10 5 10 6 0 8 5 5 10 -3 6 0 10 7 10 10 0 10 2 -1 9 -11 7 -8 13 13 26 20 13 25 23 21 39 -5 16 -4 18 4 6 8 -12 12 -10 19 10 5 14 7 30 4 35 -3 6 -1 7 3 2 10 -9 46 43 39 55 -3 5 6 20 21 34 14 13 23 29 20 34 -3 6 -2 10 3 10 5 0 14 12 20 26 7 14 8 23 2 19 -6 -3 -7 1 -4 9 3 9 11 16 18 16 14 0 38 38 31 49 -3 5 2 11 10 15 8 3 15 15 15 26 0 14 4 19 12 14 8 -5 9 -2 5 10 -4 10 -3 15 3 11 9 -6 14 8 11 28 -1 5 3 6 8 3 8 -5 24 23 26 46 0 4 9 18 19 30 17 20 21 30 25 71 1 5 5 6 10 3 5 -3 18 10 30 30 12 19 17 32 11 29 -5 -3 -10 -1 -10 4 0 6 6 11 13 11 6 0 20 14 30 31 15 26 15 30 2 25 -13 -4 -14 -2 -5 14 6 11 13 20 16 20 3 0 2 -4 -1 -10 -3 -6 -2 -10 3 -10 13 0 33 56 24 65 -4 4 -2 6 3 5 21 -5 29 1 15 10 -13 8 -12 10 4 10 11 0 16 5 13 14 -3 8 1 22 9 33 9 10 13 12 9 6 -11 -22 4 -14 16 8 9 17 8 20 -3 14 -7 -3 -4 1 7 10 11 9 19 23 17 31 -2 8 4 17 13 20 20 8 48 61 39 76 -4 6 -3 8 3 5 11 -7 44 46 40 65 -2 7 -2 9 1 5 2 -5 11 1 19 12 8 12 11 26 7 33 -4 7 -3 8 4 4 11 -7 17 6 13 27 -1 5 2 6 7 3 5 -3 16 10 25 29 15 32 15 34 -1 29 -9 -3 -3 6 13 20 19 17 29 34 28 48 -1 13 0 17 3 10 9 -21 45 39 38 63 -4 15 -3 16 4 6 12 -16 27 3 16 21 -4 6 -3 9 2 5 5 -3 20 12 32 34 12 21 18 39 12 39 -5 0 -10 -8 -10 -17 0 -9 -3 -14 -6 -10 -10 10 7 46 20 41 7 -3 21 11 32 33 10 21 27 50 36 65 10 14 15 34 12 45 -4 12 -3 14 3 6 6 -9 14 -5 26 17 10 16 16 35 15 42 -2 7 2 12 9 11 6 -1 14 4 17 13 4 10 2 13 -7 8 -6 -4 -2 4 10 17 30 34 64 99 58 110 -4 5 1 9 9 9 16 0 20 11 17 39 -2 7 2 10 8 7 13 -8 40 44 33 63 -3 8 0 11 6 7 12 -7 45 48 35 58 -4 3 -2 6 4 6 6 0 14 7 17 16 5 14 4 15 -9 4 -13 -11 -14 -10 -9 4 3 9 12 16 20 16 15 0 36 33 32 52 -2 7 2 12 9 11 6 -1 14 4 17 13 4 10 1 13 -7 9 -6 -4 -3 1 8 10 11 9 21 21 21 28 1 7 2 18 3 25 0 7 5 11 10 7 13 -7 34 33 27 51 -3 8 1 14 8 14 16 0 29 27 19 42 -3 7 -1 8 5 4 6 -4 18 6 27 24 8 16 12 30 8 30 -4 0 0 6 9 13 20 16 57 74 41 64 -9 -6 -11 -3 -7 7 3 9 10 14 14 11 5 -3 6 5 2 17 -4 17 -2 20 11 15 15 -6 22 3 18 26 0 4 3 7 9 7 5 0 10 5 10 12 0 6 7 20 16 29 9 10 18 30 19 43 2 13 8 33 14 43 13 23 14 8 1 -18 -6 -10 -9 -19 -6 -19 9 0 71 124 68 137 -2 7 2 12 9 11 6 -2 14 3 17 11 3 9 0 11 -9 7 -9 -5 -8 -3 1 6 18 15 60 73 60 83 0 3 -6 3 -12 0 -7 -4 -4 1 7 10 11 9 20 19 20 23 0 4 3 6 8 4 4 -1 7 2 7 8 0 5 0 12 0 15 0 3 9 14 20 25 12 12 18 25 15 30 -4 6 -1 10 6 10 7 0 10 3 6 6 -3 4 0 13 8 21 8 8 15 23 15 34 0 11 5 17 10 14 6 -3 10 -4 10 -1 0 2 3 13 6 23 5 15 4 16 -6 3 -10 -13 -11 -13 -7 0 2 8 9 14 15 13 15 -4 35 34 26 49 -5 7 -3 8 6 3 10 -6 12 -4 7 9 -4 9 -3 14 2 11 11 -6 21 7 26 37 3 13 12 28 20 34 10 8 12 13 5 16 -6 2 -8 11 -5 21 4 9 11 14 16 11 5 -3 14 -2 20 2 8 4 7 9 -2 15 -11 7 -10 9 4 9 15 0 19 6 16 26 0 4 3 10 8 13 15 11 38 45 26 37 -7 -4 -13 -2 -13 3 0 6 7 11 16 11 11 0 14 5 10 17 -4 10 -4 14 0 10 10 -10 56 61 48 75 -4 6 -3 8 3 5 12 -7 36 40 28 54 -4 5 0 9 8 9 7 0 19 12 26 28 l11 27 -20 -24 c-24 -28 -26 -20 -4 14 9 14 20 22 25 20 10 -7 31 31 34 60 4 34 5 35 19 35 8 0 14 6 13 13 -1 30 4 47 13 47 7 0 7 -7 0 -22 -11 -22 -11 -22 4 -4 9 11 14 28 10 38 -3 12 0 18 10 18 19 0 63 80 44 81 -7 0 -3 4 10 10 13 5 21 13 17 18 -3 5 6 21 20 35 14 15 23 31 20 36 -3 6 -1 10 6 10 7 0 9 3 6 7 -4 3 1 12 11 20 16 14 16 14 -3 8 -17 -5 -16 -2 5 17 30 26 94 128 86 135 -3 3 3 13 14 22 11 9 20 23 22 31 2 8 9 21 16 28 10 11 10 17 1 28 -9 11 -7 14 12 14 15 0 19 3 12 8 -8 5 -9 13 -3 22 6 8 10 11 10 7 0 -5 5 -5 11 -1 8 4 7 9 -2 15 -11 7 -9 10 8 15 23 6 40 34 21 34 -6 0 -3 9 7 20 18 20 28 20 1529 18 1248 -3 1511 -5 1508 -16z m2908 -5534 c-11 -18 -37 -64 -56 -103 -18 -38 -50 -95 -69 -125 -19 -30 -32 -56 -30 -59 3 -2 -4 -10 -15 -18 -11 -8 -20 -23 -20 -34 0 -11 -7 -22 -15 -25 -8 -4 -13 -9 -10 -13 2 -4 -14 -38 -35 -75 -22 -38 -40 -72 -40 -77 0 -5 -4 -9 -9 -9 -5 0 -15 -16 -22 -35 -7 -19 -17 -35 -22 -35 -4 0 -6 -4 -2 -9 3 -5 1 -12 -4 -16 -6 -3 -27 -37 -47 -75 -20 -38 -46 -76 -59 -84 -12 -8 -28 -21 -36 -28 -52 -52 -342 -286 -419 -338 -12 -8 -30 -22 -40 -30 -55 -45 -117 -90 -124 -90 -3 0 -19 -13 -37 -30 -18 -16 -36 -27 -41 -24 -4 3 -11 -2 -14 -10 -3 -9 -12 -16 -20 -16 -8 0 -14 -4 -14 -10 0 -5 -5 -10 -10 -10 -6 0 -19 -8 -30 -17 -10 -10 -75 -54 -144 -98 -69 -44 -138 -88 -153 -98 -16 -9 -36 -20 -45 -23 -10 -4 -18 -11 -18 -16 0 -5 -4 -6 -10 -3 -5 3 -10 1 -10 -4 0 -6 -6 -11 -14 -11 -8 0 -21 -6 -28 -13 -19 -20 -141 -90 -155 -90 -7 0 -13 -3 -13 -7 0 -4 -22 -18 -50 -31 -27 -13 -50 -27 -50 -31 0 -5 -6 -8 -12 -8 -7 0 -39 -16 -72 -35 -32 -20 -63 -37 -69 -38 -7 -1 -18 -8 -25 -15 -8 -7 -17 -10 -22 -7 -5 3 -10 2 -12 -2 -5 -12 -214 -116 -232 -116 -9 0 -16 -4 -16 -9 0 -5 -4 -6 -10 -3 -5 3 -10 1 -10 -5 0 -6 -4 -8 -10 -5 -5 3 -10 3 -10 -2 0 -9 -48 -33 -67 -33 -7 0 -13 -5 -13 -12 0 -6 -3 -9 -6 -5 -4 3 -27 -4 -53 -17 -72 -37 -169 -75 -175 -68 -3 3 -6 0 -6 -6 0 -7 -9 -12 -19 -12 -11 0 -21 -5 -23 -10 -2 -6 -13 -12 -26 -13 -12 0 -22 -4 -22 -7 0 -4 -6 -7 -13 -7 -7 0 -66 -21 -129 -47 -64 -26 -124 -49 -135 -51 -10 -2 -19 -4 -20 -5 -2 -2 -6 -3 -10 -5 -5 -1 -21 -7 -36 -13 -33 -14 -1237 -17 -1237 -4 0 5 25 9 55 10 30 1 68 8 85 17 17 9 30 11 30 5 0 -5 5 -10 10 -10 6 0 10 7 10 16 0 13 3 14 14 5 10 -9 16 -9 21 -1 4 6 15 8 26 5 10 -4 24 -3 31 2 16 9 37 14 61 14 9 0 17 4 17 8 0 5 11 6 23 4 14 -3 31 2 40 11 8 9 23 13 31 10 9 -3 16 -1 16 6 0 7 8 9 20 5 11 -3 20 -2 20 3 0 6 8 8 19 5 10 -2 25 3 34 11 8 9 23 13 31 10 9 -3 16 -2 16 3 0 5 19 10 42 10 24 1 47 8 53 16 5 8 16 12 23 10 6 -3 12 0 12 6 0 6 8 10 18 9 36 -4 134 15 139 28 2 7 11 10 19 7 8 -3 14 0 14 6 0 6 7 8 15 5 8 -4 15 -1 15 6 0 6 4 8 10 5 12 -7 92 14 105 29 6 6 19 12 31 13 33 3 74 22 74 33 0 6 4 9 9 6 5 -4 22 -1 38 5 15 6 39 12 53 14 13 1 26 7 28 13 2 6 9 9 16 6 8 -3 20 2 29 10 8 8 17 13 20 10 8 -8 77 24 77 36 0 6 4 8 10 5 5 -3 42 7 82 24 40 16 83 32 96 36 12 3 22 10 22 15 0 5 6 7 13 4 8 -3 33 7 58 20 24 14 52 26 62 26 9 0 17 3 17 8 0 4 32 21 70 37 38 17 70 33 70 37 0 4 7 5 15 2 8 -4 17 1 21 10 3 9 17 16 29 16 13 0 27 5 30 10 3 6 15 10 26 10 10 0 19 5 19 10 0 6 9 10 20 10 11 0 20 5 20 10 0 6 21 20 48 33 26 12 49 24 52 27 3 3 12 6 20 8 8 2 17 8 18 13 2 5 12 9 22 9 9 0 23 7 30 15 7 8 21 15 31 15 11 0 19 5 19 10 0 6 9 10 20 10 11 0 20 4 20 8 0 13 120 82 153 89 15 3 27 12 27 19 0 8 6 14 13 14 7 0 31 13 53 30 21 16 45 30 52 30 6 0 21 9 32 20 11 11 27 20 35 20 8 0 15 5 15 10 0 6 7 10 14 10 8 0 27 11 42 25 15 14 36 25 46 25 11 0 17 4 14 9 -3 4 10 17 29 27 19 10 35 22 35 26 0 5 6 8 14 8 8 0 16 7 20 15 3 8 12 12 19 9 8 -3 23 5 33 18 11 13 35 33 54 44 19 10 39 25 43 32 4 6 15 12 22 12 8 0 15 5 15 10 0 6 8 14 18 17 9 4 26 15 36 25 11 10 25 18 32 18 6 0 14 7 18 15 3 8 12 15 20 15 7 0 16 7 20 15 3 8 13 15 22 15 10 0 15 3 12 6 -7 7 28 44 42 44 5 0 22 11 37 25 60 54 101 85 112 85 6 0 11 7 11 15 0 9 8 19 18 22 9 4 20 11 24 17 4 6 11 11 16 11 5 0 28 19 52 43 23 23 48 42 55 42 7 0 15 9 18 21 3 12 10 18 16 15 6 -4 16 2 23 14 7 11 18 20 25 20 6 0 14 9 18 19 6 20 66 71 84 71 6 0 11 7 11 16 0 9 9 18 20 21 11 3 20 10 20 15 0 14 72 77 88 78 6 0 12 7 12 15 0 9 9 19 19 23 11 4 21 12 23 17 5 18 32 45 45 45 7 0 13 7 13 16 0 9 9 18 19 21 11 3 21 13 24 24 3 10 12 19 21 19 9 0 16 6 16 13 1 16 73 97 87 97 6 0 13 9 16 20 4 16 14 20 47 20 l42 0 -22 -32z m-510 -903 c0 -11 -82 -155 -91 -161 -5 -3 -9 -13 -9 -22 0 -10 -9 -25 -20 -35 -11 -9 -20 -26 -20 -37 0 -11 -7 -23 -15 -26 -8 -4 -15 -12 -15 -20 0 -7 -25 -54 -55 -105 -30 -50 -55 -95 -55 -100 0 -5 -4 -9 -8 -9 -5 0 -9 -6 -9 -14 0 -17 -42 -86 -53 -86 -7 0 -199 -130 -240 -163 -8 -7 -28 -18 -42 -26 -15 -8 -37 -22 -47 -33 -11 -10 -23 -18 -26 -18 -4 0 -22 -12 -41 -26 -19 -15 -34 -22 -34 -18 0 5 -5 1 -11 -9 -6 -9 -14 -15 -20 -12 -5 4 -9 2 -9 -3 0 -6 -11 -13 -25 -16 -14 -4 -25 -12 -25 -20 0 -7 -6 -13 -12 -13 -7 0 -40 -17 -73 -39 -33 -21 -63 -38 -67 -37 -3 1 -12 -4 -18 -12 -7 -8 -18 -15 -24 -15 -6 0 -42 -20 -80 -45 -38 -24 -102 -60 -142 -80 -41 -20 -74 -42 -74 -48 0 -5 -3 -7 -6 -4 -4 4 -53 -18 -109 -48 -56 -30 -109 -55 -117 -55 -8 0 -24 -9 -36 -20 -12 -12 -22 -18 -22 -16 0 3 -45 -17 -99 -44 l-100 -50 -356 0 c-202 0 -354 4 -351 9 3 5 26 14 51 20 25 6 45 16 45 21 0 5 7 7 15 4 8 -4 15 -1 15 5 0 6 6 8 14 5 7 -3 20 1 27 9 8 7 19 12 25 10 7 -2 18 2 26 9 7 7 20 14 28 16 8 2 16 7 18 11 1 5 14 6 27 3 19 -3 25 0 25 12 0 10 4 15 9 12 10 -7 101 31 101 42 0 4 13 8 30 9 16 1 48 11 71 23 24 11 49 20 56 20 7 0 13 7 13 16 0 8 4 13 9 9 8 -4 117 43 223 96 10 5 25 9 33 9 8 0 15 5 15 10 0 6 9 10 20 10 11 0 20 5 20 10 0 6 9 10 20 10 11 0 20 4 20 8 0 4 22 19 50 33 27 13 50 27 50 32 0 4 8 7 18 7 9 0 34 11 54 25 20 14 44 25 52 25 9 0 16 5 16 10 0 6 9 10 20 10 11 0 20 4 20 9 0 10 89 67 101 64 5 -2 9 2 9 8 0 5 4 8 9 5 5 -3 11 1 15 9 3 8 14 15 24 15 11 0 25 7 32 15 7 8 18 15 26 15 7 0 25 11 40 25 15 14 33 25 40 25 7 0 25 12 41 26 15 14 40 28 55 31 15 3 28 9 28 12 0 7 115 91 125 91 3 0 14 9 25 20 11 11 28 20 38 20 10 0 28 11 40 25 12 14 28 25 36 25 8 0 16 7 20 15 3 8 12 15 21 15 8 0 15 4 15 9 0 5 23 24 50 42 28 18 50 36 50 41 0 4 5 8 10 8 12 0 123 80 128 93 2 4 10 7 18 7 7 0 19 9 26 20 7 11 18 20 24 20 6 0 20 10 32 23 40 41 59 57 69 57 6 0 13 7 17 15 3 8 12 15 21 15 8 0 15 5 15 10 0 6 8 14 18 17 9 4 25 17 35 30 10 13 25 23 33 23 8 0 14 7 14 15 0 8 5 15 10 15 6 0 10 -2 10 -5z"/>
<path d="M3287 8813 c-5 -7 1038 -7 2468 0 297 1 -136 3 -962 5 -826 1 -1504 -1 -1506 -5z"/>
</g>
</svg>
